# xmcd CD database file
#
# Track frame offsets:
#	150
#	900
#	1650
#	2400
#	3150
#	3900
#	4650
#	5400
#	6150
#	6900
#	7650
#	8400
#	222522
#
# Disc length: 4440 seconds
#
# Revision: 7
# Processed by: cddbd v1.5PL3 Copyright (c) Steve Scherf et al.
# Submitted via: CDex 1.51
#
DISCID=5f11560d
DTITLE=day after tomorrow - elements
DYEAR=2003
DGENRE=Pop
TTITLE0=High-Sprit
TTITLE1=Time Of Destiny
TTITLE2=ありふれた日常を捨てて
TTITLE3=Sentence
TTITLE4=Stay in my heart
TTITLE5=Oval
TTITLE6=Losing myself
TTITLE7=FUNNY DAYs
TTITLE8=Morning glow
TTITLE9=grow
TTITLE10=naturally
TTITLE11=flower of youth
TTITLE12=なし
EXTD=YEAR: 2003
EXTT0=
EXTT1=
EXTT2=
EXTT3=
EXTT4=
EXTT5=
EXTT6=
EXTT7=
EXTT8=
EXTT9=
EXTT10=
EXTT11=
EXTT12=
PLAYORDER=
